Coordinates
version=1
nRows=24
nColumns=24
inDegrees=yes

Units are S.I. units (second, meters, Newtons, ...)
Angles are in degrees.

endheader
time	pelvis_tilt	pelvis_list	pelvis_rotation	pelvis_tx	pelvis_ty	pelvis_tz	hip_flexion_r	hip_adduction_r	hip_rotation_r	knee_angle_r	ankle_angle_r	subtalar_angle_r	mtp_angle_r	hip_flexion_l	hip_adduction_l	hip_rotation_l	knee_angle_l	ankle_angle_l	subtalar_angle_l	mtp_angle_l	lumbar_extension	lumbar_bending	lumbar_rotation
      3.45000000	    -12.04838746	     -2.97249424	     -5.21064282	     -1.38073544	     -0.01373488	     -0.26274788	      7.64860724	      7.16767703	      0.37251623	     -8.87555988	      5.43501347	     -6.45295532	     11.35506359	     36.69432014	     -7.94019355	     -9.91781241	    -53.75293920	     -5.18632670	    -12.55388435	      8.79751500	      5.15659822	      4.89842688	      3.09743827
      3.45500000	    -12.12571219	     -2.86099704	     -5.30491247	     -1.37405234	     -0.01433109	     -0.26266549	      7.18618829	      7.04159361	      0.44144955	     -8.64242610	      5.63736378	     -6.45084258	     11.38242228	     37.21364535	     -7.80702046	     -9.88228116	    -52.54107660	     -5.03277954	    -12.26108561	      8.86859357	      5.19730516	      4.78105688	      3.19925638
      3.46000000	    -12.08324100	     -2.72142268	     -5.49547091	     -1.36735891	     -0.01484414	     -0.26242106	      6.59733340	      6.88589233	      0.56238907	     -8.41779173	      5.91346748	     -6.33663151	     11.45851684	     37.53252916	     -7.73630109	     -9.99489764	    -51.25855513	     -4.78875975	    -11.76219177	      9.08808037	      5.10259884	      4.62850233	      3.43127276
      3.46500000	    -12.10859869	     -2.59005203	     -5.60877431	     -1.36064686	     -0.01547718	     -0.26228951	      6.08553077	      6.73274186	      0.64366433	     -8.19792148	      6.14969962	     -6.29308486	     11.51437516	     37.91868141	     -7.61838100	    -10.01505159	    -49.91578597	     -4.63225890	    -11.32092748	      9.26041527	      5.09315530	      4.47491385	      3.57178621
      3.47000000	    -12.20229906	     -2.47089687	     -5.67826309	     -1.35398814	     -0.01625122	     -0.26229041	      5.66673638	      6.59170078	      0.67930122	     -8.00341367	      6.37144602	     -6.32085772	     11.54332011	     38.37495856	     -7.47430891	     -9.95637029	    -48.53147815	     -4.52263734	    -10.90277893	      9.33737219	      5.14914185	      4.34717614	      3.70242611
      3.47500000	    -12.17943756	     -2.32548942	     -5.84822488	     -1.34730875	     -0.01690214	     -0.26212954	      5.12498651	      6.41803560	      0.78262915	     -7.81833319	      6.63335179	     -6.20603419	     11.60398908	     38.62444976	     -7.39694047	    -10.05581883	    -47.06646466	     -4.32873205	    -10.31857981	      9.53401290	      5.07354442	      4.19117648	      3.90981370
      3.48000000	    -12.29535579	     -2.21260667	     -5.89338405	     -1.34063362	     -0.01778261	     -0.26213529	      4.73971990	      6.28622014	      0.78261677	     -7.64093515	      6.84008764	     -6.25866419	     11.62064452	     39.04601990	     -7.26062667	     -9.98695782	    -45.57133618	     -4.27282577	     -9.89423708	      9.57118064	      5.15723044	      4.05592549	      4.03639724
      3.48500000	    -12.27143744	     -2.03817247	     -6.05092554	     -1.33399328	     -0.01847917	     -0.26199953	      4.23325016	      6.07787427	      0.85344256	     -7.51174885	      7.10525048	     -6.15455652	     11.66420523	     39.22343194	     -7.15738204	    -10.10633599	    -43.97539777	     -4.13584026	     -9.32112666	      9.67810854	      5.07763953	      3.86161918	      4.23751558
      3.49000000	    -12.32062754	     -1.88261496	     -6.13420421	     -1.32732895	     -0.01930877	     -0.26195116	      3.79977355	      5.89325341	      0.84786832	     -7.36930672	      7.33751652	     -6.12265979	     11.68637173	     39.47812768	     -7.02956002	    -10.15589566	    -42.34904841	     -4.09648386	     -8.84697293	      9.68001546	      5.08465734	      3.68110170	      4.38003423
      3.49500000	    -12.44984331	     -1.75397383	     -6.17935377	     -1.32069802	     -0.02027298	     -0.26195306	      3.47099756	      5.74960171	      0.78557684	     -7.25703728	      7.52583161	     -6.17640314	     11.69605582	     39.80957857	     -6.91250549	    -10.15609351	    -40.69799776	     -4.08675911	     -8.38933148	      9.63747296	      5.17133947	      3.52548580	      4.47376811
      3.50000000	    -12.44106983	     -1.57032616	     -6.29494342	     -1.31404116	     -0.02105848	     -0.26185386	      2.99940998	      5.53121229	      0.71366545	     -7.14937963	      7.78295006	     -6.05121262	     11.73300789	     39.91514713	     -6.79661241	    -10.30958382	    -38.97250465	     -4.04470331	     -7.92388423	      9.46233429	      5.11369344	      3.30485512	      4.70331365
      3.50500000	    -12.58093048	     -1.44301565	     -6.31802699	     -1.30739473	     -0.02207678	     -0.26185387	      2.68888523	      5.39465496	      0.57460372	     -7.04681216	      7.95058023	     -6.10336988	     11.74105745	     40.19933476	     -6.69018548	    -10.34958494	    -37.25895745	     -4.06483579	     -7.48453616	      9.33049828	      5.20962601	      3.14702062	      4.77457688
      3.51000000	    -12.50823240	     -1.25909274	     -6.33528229	     -1.30067155	     -0.02281933	     -0.26189330	      2.14921478	      5.15866906	      0.21101186	     -6.93538014	      8.22261217	     -5.83317758	     11.81427230	     40.19020986	     -6.50760186	    -10.48181246	    -35.50131998	     -3.93656989	     -7.04302960	      8.41413034	      5.09346756	      2.89870394	      4.89424883
      3.51500000	    -12.68393878	     -1.13294415	     -6.39601270	     -1.29405794	     -0.02389370	     -0.26182075	      1.89862266	      5.03908233	      0.07823508	     -6.86763232	      8.36637755	     -5.90094648	     11.82356688	     40.45614593	     -6.45040274	    -10.59351424	    -33.76645203	     -3.96928482	     -6.62188174	      8.23683326	      5.21823965	      2.74045190	      5.03229268
      3.52000000	    -12.59608962	     -0.95676299	     -6.40629602	     -1.28732842	     -0.02463038	     -0.26183376	      1.35028289	      4.81805561	     -0.38821983	     -6.76559702	      8.59916457	     -5.61064386	     11.90779527	     40.38854445	     -6.28708692	    -10.77790790	    -32.02255705	     -3.80304699	     -6.18780452	      7.06337699	      5.07974964	      2.48883978	      5.15247286
      3.52500000	    -12.70610119	     -0.78291450	     -6.52276721	     -1.28069495	     -0.02558327	     -0.26170902	      1.04957986	      4.63991789	     -0.56099871	     -6.72401958	      8.76148304	     -5.56639227	     11.93844392	     40.51051939	     -6.21643667	    -10.99490961	    -30.27621125	     -3.82773204	     -5.89215453	      6.53720214	      5.13833906	      2.27285087	      5.40687548
      3.53000000	    -12.68670226	     -0.62274244	     -6.51160945	     -1.27395268	     -0.02640858	     -0.26173728	      0.58169973	      4.45046474	     -1.00212986	     -6.64182351	      8.92517979	     -5.38517141	     11.97042282	     40.48956167	     -6.06357233	    -11.14320532	    -28.56476636	     -3.79251038	     -5.57151748	      5.81635814	      5.06728666	      2.03785851	      5.50242055
      3.53500000	    -12.71566663	     -0.46119794	     -6.53258151	     -1.26720826	     -0.02728041	     -0.26174401	      0.18745605	      4.26548009	     -1.43318824	     -6.59937746	      9.08763650	     -5.17914008	     12.00287412	     40.51324229	     -5.93688259	    -11.32870798	    -26.91398102	     -3.73200750	     -5.28729142	      4.90210751	      5.04591045	      1.81063879	      5.64576100
      3.54000000	    -12.77693262	     -0.37867137	     -6.43731373	     -1.26042041	     -0.02825835	     -0.26190738	     -0.18603359	      4.16441422	     -2.03397753	     -6.55583498	      9.23135641	     -4.92961572	     12.04813872	     40.62840903	     -5.81017215	    -11.34312737	    -25.46801030	     -3.19966463	     -4.68001493	      2.38825328	      5.05474460	      1.64995621	      5.63800474
      3.54500000	    -12.87039551	     -0.22433620	     -6.49556304	     -1.25363545	     -0.02917363	     -0.26183639	     -0.50912361	      4.00241481	     -2.26560636	     -6.51886853	      9.23493142	     -4.95624767	     12.02967200	     40.70748561	     -5.73281780	    -11.59827803	    -23.91878863	     -3.35022698	     -4.57130931	      2.10468549	      5.10620224	      1.43176771	      5.82667691
      3.55000000	    -12.80990417	     -0.04907951	     -6.50251350	     -1.24678063	     -0.02993940	     -0.26186634	     -0.96861340	      3.78281407	     -2.74444816	     -6.54410037	      9.34981240	     -4.72282659	     12.05568524	     40.60533521	     -5.57807037	    -11.80747451	    -22.43209800	     -3.37360511	     -4.41750337	      1.62773868	      4.99516825	      1.16616420	      5.96882661
      3.55500000	    -12.77599240	      0.08663492	     -6.41189062	     -1.23983038	     -0.03076795	     -0.26205652	     -1.40641007	      3.59612709	     -3.37935288	     -6.57692324	      9.45869679	     -4.37894488	     12.13323174	     40.57374132	     -5.39961242	    -11.94678765	    -21.10997282	     -3.19590976	     -4.12634214	      0.41452987	      4.91896451	      0.93560475	      5.97832099
      3.56000000	    -12.75066335	      0.29227224	     -6.43350236	     -1.23283493	     -0.03155218	     -0.26211187	     -1.80780898	      3.33216594	     -3.70442844	     -6.65040179	      9.50298180	     -4.22045809	     12.20745402	     40.50795524	     -5.22948723	    -12.18649529	    -19.82435065	     -3.10057990	     -3.92880624	     -0.50406651	      4.86752558	      0.64442354	      6.14413597
      3.56500000	    -12.81475255	      0.47579519	     -6.48816119	     -1.22581248	     -0.03243366	     -0.26219455	     -2.07744469	      3.09177152	     -3.95607467	     -6.79584787	      9.52770881	     -4.07852816	     12.26297143	     40.54100244	     -5.10520395	    -12.44100480	    -18.62376359	     -3.12378636	     -3.85159741	     -0.95390514	      4.90964946	      0.39547187	      6.35534189
